<svg width="26" height="23" viewBox="0 0 26 23" fill="none" xmlns="http://www.w3.org/2000/svg">
<path d="M24.974 16.3056H7.71508L8.58165 14.5692L22.98 14.5436C23.4669 14.5436 23.8843 14.2014 23.9712 13.7282L25.9652 2.74848C26.0174 2.46052 25.9391 2.164 25.7479 1.93876C25.6533 1.82791 25.5354 1.73862 25.4023 1.67708C25.2691 1.61554 25.124 1.58322 24.9769 1.58237L6.66013 1.5225L6.50362 0.798314C6.40508 0.336432 5.98194 0 5.50084 0H1.02307C0.751738 0 0.491515 0.106036 0.299652 0.294781C0.107788 0.483526 0 0.73952 0 1.00645C0 1.27337 0.107788 1.52937 0.299652 1.71811C0.491515 1.90686 0.751738 2.01289 1.02307 2.01289H4.67194L5.35592 5.21185L7.03979 13.2321L4.87192 16.7133C4.75934 16.8628 4.69153 17.0402 4.67616 17.2257C4.6608 17.4111 4.69849 17.597 4.78497 17.7625C4.95887 18.1018 5.30955 18.3156 5.69792 18.3156H7.518C7.12998 18.8226 6.9204 19.4401 6.92097 20.0747C6.92097 21.6885 8.25415 23 9.89455 23C11.5349 23 12.8681 21.6885 12.8681 20.0747C12.8681 19.4389 12.6537 18.8203 12.2711 18.3156H16.9401C16.5521 18.8226 16.3425 19.4401 16.3431 20.0747C16.3431 21.6885 17.6763 23 19.3167 23C20.9571 23 22.2903 21.6885 22.2903 20.0747C22.2903 19.4389 22.0758 18.8203 21.6932 18.3156H24.9769C25.5392 18.3156 26 17.8651 26 17.3092C25.9983 17.0425 25.8895 16.7873 25.6973 16.5993C25.5051 16.4113 25.2451 16.3057 24.974 16.3056ZM7.08617 3.50688L23.7742 3.56105L22.1396 12.5649L9.03088 12.5877L7.08617 3.50688ZM9.89455 20.9757C9.39026 20.9757 8.97871 20.5708 8.97871 20.0747C8.97871 19.5787 9.39026 19.1738 9.89455 19.1738C10.3988 19.1738 10.8104 19.5787 10.8104 20.0747C10.8104 20.3137 10.7139 20.5429 10.5421 20.7118C10.3704 20.8808 10.1374 20.9757 9.89455 20.9757ZM19.3167 20.9757C18.8124 20.9757 18.4008 20.5708 18.4008 20.0747C18.4008 19.5787 18.8124 19.1738 19.3167 19.1738C19.821 19.1738 20.2325 19.5787 20.2325 20.0747C20.2325 20.3137 20.136 20.5429 19.9643 20.7118C19.7925 20.8808 19.5596 20.9757 19.3167 20.9757Z" fill="white"/>
</svg>
